<?xml version="1.0" encoding="iso-8859-1"?>
<svg version="1.1" xmlns="http://www.w3.org/2000/svg" xmlns:xlink="http://www.w3.org/1999/xlink" x="0px"
     y="0px"
     width="65" height="133.69621718309725" viewBox="0 0 200 133.69621718309725"
     style="enable-background:new 0 0 300 300;" xml:space="preserve">
    <g id="SvgjsG1091"
       transform="matrix(1.1112253753984542,0,0,1.1112253753984542,44.43873546906568,-23.266281297405136)"
       fill="#ffffff">
		<path d="m 49.067127,20.9375 c -16.047821,0 -29.0625,13.01468 -29.0625,29.0625 0,3.030772 0.451553,5.940558 1.3125,8.6875 2.856155,0.734799 5.979491,1.363944 9.28125,1.84375 -0.46285,-0.953699 -0.947399,-1.921227 -0.8125,-2.96875 0.280061,-1.051622 0.04822,-2.160275 0.1875,-3.1875 0.223327,-1.037889 0.84708,-1.773778 1.71875,-2.34375 0.484415,-0.798407 1.857868,-0.717998 2,-1.65625 0.381642,-1.269778 2.021478,-2.926014 3.28125,-1.625 1.458325,-0.595562 3.110583,-0.432391 4.65625,-0.65625 1.110114,-0.343663 1.144058,1.332442 1.03125,2.09375 1.184629,0.684786 2.278617,1.699471 3.4375,2.3125 1.021139,-0.156528 1.155499,-1.584355 2.375,-0.6875 1.53071,0.675565 3.315934,0.46269 4.71875,-0.40625 1.12708,-0.480623 1.270573,-3.11304 -0.1875,-1.875 -1.378697,-0.03899 -3.575406,0.799006 -4.25,-1.21875 -0.184689,-1.925836 1.687206,-0.932795 2.8125,-2.15625 1.411503,-1.552474 3.836644,1.109388 4.8125,-0.875 -0.890173,-0.983947 -2.548913,-1.048054 -3.84375,-1.09375 -1.895789,-0.340464 0.687527,-0.422062 0.96875,-1.0625 1.327889,-1.049179 -0.668834,-0.01661 -1.25,0.125 -0.474035,0.899927 -1.781496,0.388585 -2.34375,1.25 0.09277,0.492976 -0.03311,0.924303 -0.28125,1.3125 l 0.34375,0.65625 -0.8125,-0.0625 c -0.158439,0.159979 -0.302659,0.301984 -0.46875,0.4375 -1.037575,0.397636 0.653828,2.255268 -0.65625,2.46875 -1.147276,0.337736 -1.087574,-1.133117 -1.3125,-1.90625 0.239949,-1.200531 -1.168363,-1.226557 -1.53125,-2.21875 -0.583958,-0.487049 -0.985516,-2.069369 -1.875,-1.34375 0.437184,0.77928 1.07553,1.42218 1.53125,2.1875 0.245217,0.890707 1.434362,1.567111 1.4375,2.28125 -0.872014,-0.980527 -1.609072,1.325802 -2.28125,0.53125 -0.655086,-0.755349 1.805987,-0.09076 0.90625,-1.4375 -1.103906,-0.421532 -1.243024,-1.582877 -1.9375,-2.40625 -0.53105,-0.840781 -1.504225,-1.060201 -2.34375,-0.53125 -1.079191,0.647838 -2.228112,1.437417 -2.6875,2.6875 -0.0133,1.270467 -1.4781,1.095002 -2.125,0.375 -0.807598,-0.632789 -0.789351,-1.666752 -0.15625,-2.4375 0.374899,-0.957133 0.931566,-1.849523 2,-1.0625 1.324441,0.60585 1.398822,-1.764445 1.5625,-2.4375 1.219567,-0.156056 1.709424,-1.504695 2.84375,-1.90625 1.361416,-1.666409 1.838499,-0.01465 3.46875,-0.34375 1.31337,0.322558 1.094381,-1.039693 1.75,-1.40625 1.433142,1.071196 0.726262,-1.673598 -0.03125,-1.59375 -0.779559,-0.645929 1.565457,-2.470573 0.21875,-1.90625 -0.525594,0.707053 -1.65459,1.097068 -1.15625,2.15625 -0.718027,0.517032 -0.0059,1.39698 -0.9375,1.9375 -1.241927,0.282507 -0.453315,-2.126025 -1.03125,-1.8125 -0.945716,1.133853 -1.096971,0.401508 -1,-0.6875 0.70931,-1.125198 2.103047,-1.631306 2.84375,-2.78125 0.539078,-0.853512 1.092853,-1.56118 2.125,-1.84375 0.84351,-0.254909 1.713583,0.626183 2.59375,0.75 0.61024,0.321615 2.483608,0.492763 2.09375,-0.5625 -1.028541,-0.342784 -0.764114,-1.494284 -0.75,-2.34375 0.936023,-0.76711 -0.464525,-1.598029 0.875,-1.625 0.702381,0.563101 0.665382,1.83485 -0.125,2.21875 0.166595,1.420157 2.909939,0.827344 1.65625,-0.53125 1.621094,-0.566582 1.623724,-0.904865 1,-2.40625 0.194881,-0.670453 -4.462507,-0.387594 -1.875,-1.0625 1.152892,-0.342001 2.783685,0.426034 3.40625,-0.46875 -0.25905,-1.134232 1.537809,-0.571063 -0.1875,-1.5 -0.211648,-0.32402 -0.449514,-0.590472 -0.71875,-0.8125 11.568761,3.093927 20.16344,13.442679 20.625,25.875 -0.182499,-0.307227 -0.413442,-0.594387 -0.625,-0.875 -0.217369,-0.45735 -0.903678,-1.153112 -1.40625,-1.15625 -0.228473,-0.0012 -0.412909,0.119172 -0.5,0.5 -0.540773,2.47225 -0.833034,5.054101 -0.9375,7.59375 -0.08302,0.919497 0.341115,2.371535 -1.09375,1.90625 l -1.1875,-3.125 c -0.424764,-0.728911 -0.409245,-2.229325 -1.59375,-1.65625 -0.984133,-1.227595 -2.441704,-1.221028 -3.8125,-0.1875 -1.185005,1.234527 -2.518974,-0.693684 -3.71875,0.59375 -0.818669,0.440853 -1.253118,-1.276029 -2,-1.25 -1.068465,0.565547 0.669342,1.369101 0.90625,1.9375 0.314149,1.100738 0.742093,-1.243901 1.03125,0.4375 0.584019,1.247697 1.464258,-1.118315 1.8125,-0.75 1.644738,0.497302 1.619657,1.951805 0.8125,3.53125 -1.237288,1.324565 -2.620697,2.460959 -4.1875,3.375 -0.706362,0.347271 -2.174156,1.222523 -2.21875,-0.125 -1.320178,-1.466542 -2.683689,-2.957156 -3.65625,-4.71875 -0.935305,-0.635892 -1.170646,-2.561125 -2.59375,-2 0.867813,2.345143 2.823479,4.048778 3.96875,6.25 0.788218,0.764382 1.548857,1.733127 2.5,2.25 0.120695,0.04409 0.22433,0.08949 0.34375,0.125 0.675544,-0.04141 1.361189,-0.105193 2.03125,-0.15625 0.112395,-0.06882 0.235034,-0.152728 0.34375,-0.25 0.702881,-0.238663 1.855455,-1.266675 2.21875,-1.15625 0.06385,0.461752 -0.05519,0.871383 -0.25,1.21875 4.787576,-0.450703 9.371889,-1.159769 13.53125,-2.125 0.947356,-2.86907 1.46875,-5.938329 1.46875,-9.125 0,-16.04782 -12.98343,-29.0625 -29.03125,-29.0625 z m -4.03125,1.46875 c -0.08868,0.627913 0.337439,1.583402 0.03125,2.25 0.562851,0.861885 1.032477,1.936086 0.53125,2.9375 -1.572731,0.724552 -3.123925,1.642224 -3.96875,3.21875 -0.89331,0.226809 -2.08182,-0.121843 -3,-0.5 -0.937248,0.653455 -1.969102,1.235176 -3.0625,1.5625 -1.757266,0.0098 0.738663,-2.931319 1.9375,-3.21875 1.507343,0.02446 2.339223,-1.328051 3.46875,-2.09375 1.787718,-0.532116 1.655562,-2.272771 -0.28125,-1.25 -1.785397,1.412003 -3.741038,2.562999 -5.78125,3.5625 -1.198648,0.485458 0.451757,-1.683794 0.6875,-2.0625 -0.06135,0.05979 -0.186265,0.166825 -0.375,0.375 -0.639028,0.700373 -2.001881,0.998932 -1.78125,2.21875 -0.495266,0.881048 -2.409031,1.010885 -1.375,2.15625 -0.38252,0.03218 -2.295879,-1.525233 -0.875,-0.25 0.705766,1.503172 -1.626672,1.270054 -1.71875,-0.15625 -0.236375,0.262499 -1.076601,2.031673 -1.46875,1.5625 -0.02025,-0.281146 -0.122178,-0.481326 -0.28125,-0.65625 4.301275,-5.104842 10.390766,-8.659 17.3125,-9.65625 z m 5.375,1.71875 0.40625,0.125 0.90625,0.09375 0.1875,0.65625 -0.5625,0.53125 -0.84375,-0.28125 c 0,0 -0.952677,-0.358356 -1,-0.46875 -0.04733,-0.110393 0.28125,-0.59375 0.28125,-0.59375 l 0.625,-0.0625 z m -10,8.09375 c 0.03901,-0.0038 0.05633,0 0.09375,0 1.160545,-0.01985 1.569402,1.416429 0.34375,1.59375 -0.961271,0.245406 -1.598578,-1.463222 -0.4375,-1.59375 z m -10.90625,0.65625 0.125,0.125 0,0.125 0.03125,0.78125 c 0,0 -0.4375,0.155683 -0.4375,0.21875 0,0.0631 0.0625,0.65625 0.0625,0.65625 l -0.5,0.75 c 0,0 -0.5625,5.9e-4 -0.5625,-0.0625 0,-0.06307 -0.329144,-0.670854 -0.21875,-0.78125 0.110393,-0.110393 0.3125,-0.84375 0.3125,-0.84375 l -0.28125,-0.3125 0.25,-0.40625 0.53125,0.0625 0.375,0.0625 0.3125,-0.375 z m 10.15625,3.28125 0.59375,0.15625 0.15625,0.21875 c 0,0 0.0625,0.889877 0.0625,0.96875 0,0.07885 -0.313369,1.014006 -0.21875,1.1875 0.09465,0.173463 0.5625,0.875 0.5625,0.875 l 0.15625,0.5 c 0,0 -0.264638,0.28038 -0.375,0.375 -0.110425,0.09465 -0.9375,0.5 -0.9375,0.5 l -1.0625,-0.5 0,-0.9375 0.75,-0.6875 -0.09375,-0.1875 c 0,0 -0.546425,0.217883 -0.59375,0.3125 -0.04729,0.09462 -0.295557,0.625 -0.4375,0.625 -0.141944,0 -0.53125,-0.09375 -0.53125,-0.09375 0,0 -0.578875,-0.577406 -0.5,-0.65625 0.07884,-0.07888 0.84375,-1.25 0.84375,-1.25 l 0.9375,0.0625 c 0,0 0.15625,0.530651 0.15625,0.59375 0,0.06307 0.1875,0.34375 0.1875,0.34375 l 0.375,-0.03125 c 0,0 -0.171931,-0.655349 -0.15625,-0.75 0.01578,-0.09462 -0.15625,-0.96875 -0.15625,-0.96875 l 0.28125,-0.65625 z m 41.125,4.25 4.4375,5.46875 c 0,0 -0.889127,-1.762255 -0.78125,-2.875 6.954386,2.665202 9.76054,5.815706 8.875,8.84375 -0.92665,3.16869 -5.978258,6.313207 -15.1875,8.625 -18.418489,4.623584 -46.190414,3.886884 -61.5625,-1.59375 -6.752607,-2.407518 -10.315105,-5.308988 -10,-8.125 0.523482,-4.678217 5.835313,-7.862389 9.15625,-8.875 -5.448912,1.117214 -10.71875,6.289223 -10.71875,9.5 0,3.210771 3.677642,8.239625 10.71875,10.75 16.023568,5.712906 44.033853,6.425161 63.03125,1.65625 9.498699,-2.384456 15.01654,-7.610866 16.0625,-11.1875 1.01844,-3.482517 -2.33318,-7.615331 -9.90625,-10.46875 0.866503,-0.833811 2.75,-1.375 2.75,-1.375 l -6.875,-0.34375 z m -38.625,5.625 0.21875,0.125 0.125,0.125 -0.03125,0.46875 -0.1875,0.5625 -0.375,0 c 0,0 -0.03125,-0.452375 -0.03125,-0.53125 l 0,-0.53125 0.28125,-0.21875 z m 10.1875,4.3125 0.21875,0.03125 0.125,-0.03125 0.1875,0.0625 -0.09375,0.09375 -0.15625,0.0625 -0.09375,0.09375 -0.15625,0 -0.125,-0.03125 -0.09375,-0.125 -0.0625,-0.09375 0.0625,-0.03125 0.1875,-0.03125 z m -27.46875,15.8125 c 5.214457,7.778954 14.119714,12.90625 24.1875,12.90625 9.918256,0 18.665586,-4.9774 23.90625,-12.5625 -4.692837,0.854396 -9.76115,1.427451 -14.9375,1.71875 -0.393886,0.394876 -0.789693,0.808106 -1.15625,1.21875 -0.283292,0.978049 -0.122183,2.136909 -0.28125,3.1875 0.166627,1.337299 -1.124375,2.186432 -2.28125,2.46875 -0.163774,0.86836 -0.492243,1.668647 -0.90625,2.4375 -1.421779,0.22365 -2.859125,0.34375 -4.34375,0.34375 -1.168936,0 -2.337538,-0.07897 -3.46875,-0.21875 -0.916691,-1.287466 -2.787013,-1.687874 -3.21875,-3.28125 -0.303865,-1.021549 0.715158,-1.915238 0.09375,-2.8125 -0.155963,-1.359348 -1.204173,-2.276941 -2.3125,-2.96875 0.05695,-0.157123 0.12823,-0.304927 0.21875,-0.4375 -5.461156,-0.35425 -10.72722,-1.032851 -15.5,-2 z m 36.03125,5.4375 c 0.06248,-0.0037 0.125,0 0.125,0 l 0.375,0.375 c 0,0 -8.5e-4,0.623563 0.09375,0.78125 0.09462,0.157718 -0.248831,0.686032 -0.375,0.84375 -0.126169,0.15775 -0.528912,0.561334 -0.78125,0.6875 -0.252338,0.126201 -0.34375,0.811331 -0.34375,0.9375 0,0.07295 -0.01454,0.247203 -0.03125,0.4375 -0.421471,0.17995 -0.849412,0.340533 -1.28125,0.5 -0.247753,0.01973 -0.735638,0.15625 -0.84375,0.15625 -0.126169,0 -0.1875,-0.873831 -0.1875,-1 0,-0.126169 0.09375,-0.623831 0.09375,-0.75 0,-0.126169 0.71875,-0.25 0.71875,-0.25 l 0.5,-0.375 -0.875,0.0625 0.125,-0.53125 0.40625,-0.3125 0.59375,-0.03125 0.84375,-0.625 c 0,0.03152 0.28125,-0.498232 0.28125,-0.6875 0,-0.140867 0.375062,-0.207646 0.5625,-0.21875 z"
              style="color:;enable-background:accumulate;" fill="#ffffff" fill-opacity="1" fill-rule="nonzero"
              stroke="none" visibility="visible" display="inline">
		</path>
	</g>
    <g id="SvgjsG1092"
       transform="matrix(1.6297261897864093,0,0,1.6297261897864093,-1.4341588449623988,67.33376474558283)"
       fill="#ffffff">
		<path d="M6.68 40 l0 -0.76 l2.56 0 l0 -26.64 c-6.44 0 -7.6 5.84 -7.6 7.92 l-0.76 0 l0 -8.68 l24.88 0 l0 8.68 l-0.76 0 c0 -2.08 -1.16 -7.92 -7.6 -7.92 l0 26.64 l2.56 0 l0 0.76 l-13.28 0 z M27.52 40 l0 -0.76 l2.2 0 l0 -16.6 l-2.2 0 l0 -0.76 l2.4 0 c2.6 0 5.64 -0.08 7 -0.72 l0 3.44 l0.08 0 c0.92 -2.08 2.72 -3.44 5.16 -3.44 c2.52 0 4.04 1.6 4.04 3.84 c0 2.04 -1.48 3.6 -3.6 3.6 c-1.92 0 -3.36 -1.28 -3.36 -3.24 c0 -1.24 0.44 -2.48 1.48 -3.12 l0 -0.08 c-2.52 0.88 -3.8 3.4 -3.8 6.68 l0 10.4 l2.2 0 l0 0.76 l-11.6 0 z M65.6 26.880000000000003 l0 10.52 c0 0.76 0.08 1.36 0.64 1.36 c0.68 0 1.2 -0.84 1.52 -1.24 l0.52 0.36 c-1.28 2.24 -2.76 2.84 -5.12 2.84 c-1.6 0 -2.96 -0.68 -3.84 -2.16 c-1.24 1.92 -3.48 2.16 -5.52 2.16 c-2.88 0 -5.88 -1.84 -5.88 -5 c0 -5.88 6.8 -6.08 10.96 -6.28 l0 -4.84 c0 -1.8 -0.76 -2.68 -2.64 -2.68 c-0.84 0 -2.64 0.4 -2.64 1.52 c0 0.84 1.4 1 1.4 2.76 c0 1.72 -1.76 2.36 -3.12 2.36 c-1.64 0 -2.64 -1.16 -2.64 -2.56 c0 -3.28 4.24 -4.84 7.68 -4.84 c3.2 0 8.68 1.04 8.68 5.72 z M58.88 36.6 l0 -6.4 c-3.28 0 -4.24 1 -4.24 4.2 c0 3.6 0.4 5.08 2.16 5.08 c1.44 0 2.08 -1.28 2.08 -2.88 z M78.28 40.24 l-7.4 -17.6 l-1.48 0 l0 -0.76 l10.8 0 l0 0.76 l-1.68 0 l3.64 9.72 l0.08 0 l2.36 -6.52 c0.32 -0.84 0.48 -1.52 0.48 -2.16 s-0.4 -1.04 -1.44 -1.04 l-0.84 0 l0 -0.76 l5.56 0 l0 0.76 l-0.16 0 c-1.48 0 -2 1.52 -2.36 2.44 l-5.8 15.16 l-1.76 0 z M98.08 29.6 l4.56 0 l0 -4.4 c0 -1.72 -0.56 -3.28 -2.28 -3.28 s-2.28 1.12 -2.28 4.32 l0 3.36 z M109.84 30.36 l-11.76 0 l0 4.12 c0 4.08 1.48 5.24 3.92 5.24 c3.24 0 5.88 -2.8 6.92 -5.68 l0.76 0.24 c-1.6 4.24 -4.36 6.44 -8.96 6.44 c-6.08 0 -10.56 -3.96 -10.56 -9.68 c0 -5.88 4.48 -9.88 10.24 -9.88 c5.48 0 9.44 4.16 9.44 9.2 z M112 40 l0 -0.76 l2.2 0 l0 -26.64 l-2.2 0 l0 -0.76 l3 0 c2.88 0 5.8 -0.48 6.4 -1 l0 28.4 l2.2 0 l0 0.76 l-11.6 0 z">
		</path>
	</g>
</svg>

